Coordinates
version=1
nRows=14
nColumns=42
inDegrees=yes

Units are S.I. units (second, meters, Newtons, ...)
If the header above contains a line with 'inDegrees', this indicates whether rotational values are in degrees (yes) or radians (no).

endheader
time	pelvis_tilt	pelvis_list	pelvis_rotation	pelvis_tx	pelvis_ty	pelvis_tz	hip_flexion_r	hip_adduction_r	hip_rotation_r	knee_angle_r	knee_angle_r_beta	ankle_angle_r	subtalar_angle_r	mtp_angle_r	hip_flexion_l	hip_adduction_l	hip_rotation_l	knee_angle_l	knee_angle_l_beta	ankle_angle_l	subtalar_angle_l	mtp_angle_l	lumbar_extension	lumbar_bending	lumbar_rotation	sh_tx_r	sh_ty_r	sh_tz_r	sh_plane_elev_r	sh_elev_r	sh_axial_rot_r	elbow_flex_r	pro_sup_r	sh_tx_l	sh_ty_l	sh_tz_l	sh_plane_elev_l	sh_elev_l	sh_axial_rot_l	elbow_flex_l	pro_sup_l
      3.28333330	     -2.83064440	     -1.28859835	     -0.42716606	      0.24791186	      0.94017634	     -0.07314876	     -0.71163224	     -4.30943883	     -8.36434251	      1.82386508	      0.03183245	      4.49205459	     -1.04544417	     -7.49999987	      1.98207923	     -4.12643333	     -9.49446151	      0.51854839	      0.00905038	      6.40923927	      3.35367550	     -7.49999987	      0.68909054	      3.89368195	      0.45311939	     -0.01835729	     -0.00401713	     -0.00483611	    -10.44112357	      9.20180803	      3.96887552	     29.23809895	    112.26982054	     -0.01912158	      0.02892411	     -0.00429565	     76.62493035	     90.97373657	      5.74541736	      7.64999465	      2.59847854
      3.30000000	     -2.69751726	     -1.27197011	     -0.45082439	      0.24783281	      0.94042761	     -0.07312917	     -0.85198671	     -4.36450904	     -8.30361185	      1.84526925	      0.03220602	      4.46655730	     -1.08454611	     -7.49999987	      1.83225960	     -4.11477113	     -9.54083783	      0.49423841	      0.00862609	      6.37736819	      3.32029757	     -7.49999987	      0.58932600	      3.93573614	      0.18299971	     -0.01682071	     -0.00371153	     -0.00489338	    -10.39603409	      9.22446556	      4.34724348	     29.39168611	    111.36437927	     -0.02086795	      0.02929174	     -0.00433392	     76.16539236	     90.75706022	      5.23155401	      7.16936941	      2.79565982
      3.31666670	     -2.89282519	     -1.25311405	     -0.55372567	      0.24792301	      0.94030061	     -0.07309923	     -0.59708697	     -4.42026302	     -8.27880102	      1.89474400	      0.03306952	      4.49182503	     -0.94966960	     -7.49999987	      2.02612411	     -4.10212905	     -9.75620428	      0.49827753	      0.00869658	      6.47166869	      3.55546971	     -7.49999987	      0.90098444	      3.92105469	      0.84463032	     -0.01885980	     -0.00362097	     -0.00483491	    -10.42805826	      9.27406909	      3.99511581	     29.01179002	    112.21117440	     -0.01941784	      0.02967098	     -0.00436367	     76.29636385	     90.56099368	      5.29270364	      7.17188632	      2.51247619
      3.33333330	     -2.98159689	     -1.24341710	     -0.58169807	      0.24796627	      0.94036623	     -0.07300885	     -0.47854076	     -4.44110483	     -8.29263045	      1.91392821	      0.03340435	      4.42694934	     -0.95743943	     -7.49999987	      2.11375097	     -4.10044389	     -9.84824305	      0.49457662	      0.00863199	      6.45778569	      3.63329245	     -7.49999987	      1.11959268	      3.96789491	      0.62291165	     -0.01784265	     -0.00368619	     -0.00484048	    -10.33923180	      9.34784837	      4.64219631	     29.04881251	    111.94827113	     -0.02128515	      0.02954426	     -0.00436513	     75.69192494	     90.51458658	      5.02207393	      7.55899764	      2.45400807
      3.35000000	     -2.97350761	     -1.23336583	     -0.59912082	      0.24791874	      0.94052050	     -0.07303468	     -0.48599473	     -4.45589923	     -8.27213663	      1.91048502	      0.03334425	      4.46673440	     -0.91430067	     -7.49999987	      2.09586914	     -4.08993738	     -9.85996428	      0.49521313	      0.00864310	      6.44367497	      3.56793683	     -7.49999987	      1.09944406	      3.94728852	      1.11503716	     -0.01939445	     -0.00370993	     -0.00485712	    -10.60194469	      9.31369747	      4.23496136	     28.87326307	    112.06386853	     -0.02084626	      0.02938546	     -0.00434161	     75.88765755	     90.66043058	      5.27924250	      7.87710025	      2.48370298
      3.36666670	     -3.02281917	     -1.24952483	     -0.65683642	      0.24795510	      0.94061410	     -0.07297429	     -0.40887043	     -4.44171484	     -8.24780157	      1.93629723	      0.03379476	      4.49173709	     -0.85884782	     -7.49999987	      2.13530171	     -4.11574432	     -9.99244813	      0.48915003	      0.00853728	      6.43193787	      3.65531910	     -7.49999987	      1.12829357	      4.00379261	      1.25734050	     -0.01978552	     -0.00369353	     -0.00481821	    -10.72188625	      9.34576848	      4.22789675	     28.94881751	    112.25722860	     -0.02093988	      0.02917212	     -0.00434928	     75.55729528	     90.74009569	      5.59495181	      8.16497131	      2.51266777
      3.38333330	     -3.02547275	     -1.25517076	     -0.66261588	      0.24797626	      0.94387692	     -0.07319129	     -0.42145760	     -4.42233871	     -8.22999197	      1.89577964	      0.03308760	      4.51495238	     -0.77534304	     -7.49999987	      2.12676544	     -4.13122903	    -10.12099141	      0.48478312	      0.00846106	      6.37183861	      3.83801773	     -7.49999987	      1.14844885	      4.03388539	      1.27380203	     -0.01942403	     -0.00404874	     -0.00482524	    -10.95632604	      9.35417201	      4.39849300	     28.83885862	    112.14932395	     -0.02116357	      0.02944842	     -0.00431114	     75.64813205	     90.48325440	      5.46968702	      7.67030956	      2.59436810
      3.40000000	     -3.06818672	     -1.25129378	     -0.69023671	      0.24795196	      0.94055296	     -0.07286756	     -0.39311486	     -4.42692237	     -8.31326989	      1.85319650	      0.03234438	      4.59240348	     -0.58994434	     -7.49999987	      2.16386962	     -4.12654124	    -10.16329204	      0.47813069	      0.00834495	      6.35271432	      3.80821042	     -7.49999987	      1.22391715	      4.08492349	      1.37240772	     -0.01974037	     -0.00417742	     -0.00483435	    -11.03336955	      9.29777298	      4.06965303	     28.64898470	    112.52672510	     -0.02042230	      0.02944182	     -0.00436138	     75.33996533	     90.52817647	      6.28194643	      7.74064057	      2.50953453
      3.41666670	     -3.05503125	     -1.25581928	     -0.72019673	      0.24789792	      0.94068471	     -0.07289543	     -0.41721282	     -4.41044903	     -8.20994396	      1.81956383	      0.03175738	      4.53901731	     -0.77718643	     -7.49999987	      2.13880458	     -4.13431770	    -10.30123382	      0.47781806	      0.00833950	      6.39416329	      3.98103644	     -7.49999987	      1.12140751	      4.06207279	      1.12029879	     -0.01927050	     -0.00442112	     -0.00484058	    -10.88507809	      9.29914308	      4.05024503	     28.99250561	    112.44035275	     -0.02119993	      0.02978805	     -0.00431981	     75.27902053	     90.62091075	      6.10862914	      7.27931237	      2.75998896
      3.43333330	     -3.11356316	     -1.27567985	     -0.72372391	      0.24798607	      0.94074710	     -0.07284337	     -0.35249257	     -4.39015693	     -8.31851461	      1.82911319	      0.03192405	      4.68226344	     -0.55320601	     -7.49999987	      2.19767006	     -4.15797814	    -10.29794960	      0.47750239	      0.00833399	      6.32592599	      3.93022915	     -7.49999987	      1.24062136	      4.13848684	      1.10409907	     -0.01919664	     -0.00396514	     -0.00480758	    -10.91896126	      9.23498608	      3.76694036	     28.72486154	    112.76878843	     -0.02003493	      0.02999636	     -0.00430372	     75.24036460	     90.69573150	      6.35173655	      7.46229246	      2.57495433
      3.45000000	     -3.09069746	     -1.27170284	     -0.71672780	      0.24802493	      0.94091098	     -0.07287117	     -0.39358910	     -4.38331749	     -8.30503593	      1.81153687	      0.03161728	      4.64626885	     -0.68938373	     -7.49999987	      2.15601395	     -4.15618186	    -10.37313255	      0.46787231	      0.00816591	      6.32668476	      4.15848588	     -7.49999987	      1.31904931	      4.16837384	      0.46167818	     -0.01653529	     -0.00357778	     -0.00482286	    -10.82547324	      9.14419539	      4.09461024	     28.63250964	    112.01716009	     -0.01960366	      0.03003673	     -0.00432874	     74.74401011	     90.76360538	      6.08960841	      7.38589562	      2.91895263
      3.46666670	     -3.10993381	     -1.27904019	     -0.75059772	      0.24802870	      0.94088147	     -0.07273719	     -0.36255388	     -4.36908245	     -8.16923980	      1.80164892	      0.03144471	      4.66869096	     -0.82796401	     -7.49999987	      2.16410785	     -4.14953876	    -10.18120575	      0.46559117	      0.00812610	      6.23994750	      3.72983133	     -7.49999987	      1.14661334	      4.15971122	      0.41244090	     -0.01749877	     -0.00398517	     -0.00487994	    -10.67966932	      9.17881819	      4.04502422	     29.33930469	    112.62896103	     -0.02116943	      0.02926193	     -0.00427948	     74.78685802	     91.00684366	      6.24094451	      6.73398806	      2.78126449
      3.48333330	     -3.15828767	     -1.28961284	     -0.76233943	      0.24801351	      0.94089771	     -0.07286723	     -0.29685287	     -4.35901045	     -8.21128116	      1.81917699	      0.03175063	      4.70675984	     -0.76010826	     -7.49999987	      2.19348108	     -4.16966969	    -10.16373637	      0.46513905	      0.00811821	      6.20808228	      3.83338985	     -7.49999987	      1.25432922	      4.18176018	      0.23308887	     -0.01679047	     -0.00373467	     -0.00482496	    -10.54521266	      9.16686514	      4.00327586	     29.26288785	    112.38937366	     -0.02140210	      0.02956567	     -0.00428599	     74.60201566	     90.96725428	      5.97824180	      6.46771630	      2.76871006
      3.50000000	     -3.22227515	     -1.28450630	     -0.80721274	      0.24813889	      0.94087259	     -0.07279407	     -0.21352286	     -4.37143298	     -8.24941466	      1.84497709	      0.03220092	      4.85755376	     -0.51085403	     -7.49999987	      2.22729257	     -4.17677277	    -10.23284797	      0.47058058	      0.00821318	      6.28096534	      4.09464996	     -7.49999987	      1.42720817	      4.18393505	      0.62894055	     -0.01771420	     -0.00337084	     -0.00483667	    -10.50354908	      9.22251926	      4.13450729	     28.75713125	    112.50928084	     -0.01989214	      0.02977096	     -0.00428508	     74.77548347	     90.88964339	      5.96440904	      6.88637786	      2.49281579
